# xmcd
#
# Track frame offsets:
#	150
#	14761
#	27760
#	41412
#	54158
#	68423
#	82129
#	94237
#	108801
#	124403
#	136526
#	143422
#	156170
#	169033
#	182616
#	200456
#	213928
#	228131
#	241347
#	248101
#	262537
#	278675
#	284760
#	289657
#	304161
#
# Disc length: 4251 seconds
#
# Revision: 2
# Processed by: cddbd v1.5.1PL0 Copyright (c) Steve Scherf et al.
# Submitted via: EasyCDDAExtractor 7.5.0.1
#
DISCID=4f109919
DTITLE=Various Artist - Kentucky Mountain Music (Classic Recordings Of The 19
DTITLE=20s and 30s) - Disc 3
DYEAR=2003
DGENRE=Bluegrass
TTITLE0=J. W. Day - Way Up On Clinch Mountain
TTITLE1=Ted Gossett's Band - Going To Jail
TTITLE2=Rutherford and Foster - Richmond Blues
TTITLE3=Jimmy Johnson's String Band - Soap In The Washpan
TTITLE4=Mcvay and Johnson - Ain't Going To Lay My Armor Down
TTITLE5=Blue Ridge Mountaineers - Old Voile
TTITLE6=Asa Martin - Gentle Annie
TTITLE7=Burnett and Rutherford - Billy In The Low Ground
TTITLE8=Daw Henson - Lady Margaret And Sweet William
TTITLE9=Doc Roberts - And The Cat Came Back
TTITLE10=Walter Williams - Pass Around The Bottle
TTITLE11=Marion Underwood - Coal Creek March
TTITLE12=Pete Steele - Johnny O Johnny
TTITLE13=Rutherford and Foster - Taylor's Quickstep (Monroe County Quickstep)
TTITLE14=Justis Begley - I've Been All Around This World
TTITLE15=Jimmy Johnson's String Band - Jenny Baker
TTITLE16=Clay Walters - Come All You Roving Cowboys
TTITLE17=Taylor's Kentucky Boys - Soldier's Joy
TTITLE18=Maynard Britton - I Came To This Country
TTITLE19=Crockett Family Mountaineers - Medley Of Old Time Dance Tunes Part 1
TTITLE20=Burnett and Rutherford - Rambling Reckless Hobo
TTITLE21=Bill Stepp and Walter Williams - Wild Horse
TTITLE22=Boyd Asher - Old Christmas
TTITLE23=Ted Chesnut - The Rowan County Feud
TTITLE24=Hatton Brothers - Wish I Had My Time Again
EXTD=
EXTT0=
EXTT1=
EXTT2=
EXTT3=
EXTT4=
EXTT5=
EXTT6=
EXTT7=
EXTT8=
EXTT9=
EXTT10=
EXTT11=
EXTT12=
EXTT13=
EXTT14=
EXTT15=
EXTT16=
EXTT17=
EXTT18=
EXTT19=
EXTT20=
EXTT21=
EXTT22=
EXTT23=
EXTT24=
PLAYORDER=
